<?xml version="1.0" encoding="utf-8"?>
<!-- Generator: Adobe Illustrator 15.0.0, SVG Export Plug-In  -->
<!DOCTYPE svg PUBLIC "-//W3C//DTD SVG 1.1//EN" "http://www.w3.org/Graphics/SVG/1.1/DTD/svg11.dtd" [
	<!ENTITY ns_flows "http://ns.adobe.com/Flows/1.0/">
]>
<svg version="1.1"
	 xmlns="http://www.w3.org/2000/svg" xmlns:xlink="http://www.w3.org/1999/xlink" xmlns:a="http://ns.adobe.com/AdobeSVGViewerExtensions/3.0/"
	 x="0px" y="0px" viewBox="0 0 281 269" overflow="visible" enable-background="new 0 0 281 269"
	 xml:space="preserve">
<defs>
</defs>
<g>
	<path fill="#FFFFFF" d="M132.884,9c5.62,0.007,8.5,3.732,11.574,10.164c0.333,0.697,0.647,1.355,0.957,1.93
		c1.328,2.522,29.383,59.176,54.136,109.16c26.308,53.125,51.156,103.303,53.827,108.546c3.214,6.309,3.829,12.768,1.568,16.456
		c-2.405,3.925-8.267,4.749-12.761,4.749H22.994c-3.82,0-10.571-0.561-12.871-4.312c-2.103-3.431-1.213-10.062,2.267-16.893
		c2.673-5.247,27.551-55.485,53.891-108.673C91.004,80.2,119.026,23.614,120.334,21.127c0.328-0.607,0.643-1.267,0.977-1.964
		C124.385,12.731,127.265,9.007,132.884,9 M132.898,0h-0.029c0.005,0,0.01,0,0.015,0S132.894,0,132.898,0L132.898,0z M132.884,0
		c-13.968,0.01-18.493,13.19-20.47,16.852C110.438,20.515,9.771,224.112,4.371,234.714c-7.981,15.667-6.799,34.29,18.623,34.29
		h219.192c23.944,0,27.193-18.623,19.212-34.29c-5.4-10.602-106.067-214.199-108.044-217.862C151.378,13.19,146.854,0.01,132.884,0
		L132.884,0z"/>
</g>
<path fill="#FFFFFF" d="M237.013,233.334c-5.912-12.415-45.721-92.82-49.859-101.097c-4.138-8.277-9.262-8.08-14.583,3.35
	c-5.321,11.431-22.859,49.859-27.984,56.954c-5.123,7.094-15.371,15.765-21.086-3.942c-5.715-19.706-7.292-41.778-6.109-66.609
	s6.109-60.107,10.051-66.413s7.488-9.854,9.656,0c2.168,9.854,4.336,21.875,4.336,21.875l16.947-9.065
	c0,0-9.854-22.86-13.006-26.014c-3.153-3.153-10.839-10.642-22.86,0.394c-12.021,11.036-22.072,43.553-22.072,79.814
	s5.123,88.485,30.743,88.485c17.94,0,26.407-18.524,26.407-18.524l19.116-37.641l16.874,33.604l-20.52,0.005l-5.742,12.11h32.346
	l23.156,46.115c0,0,4.927,0.198,11.233-0.984C234.057,245.75,242.925,245.75,237.013,233.334z"/>
<path fill="#FFFFFF" d="M115.519,229.393c0,0-35.415-70.922-37.049-74.689c-2.266-5.223-9.755-5.124-12.12,0.098
	c-2.836,6.264-36.005,75.556-38.232,79.913c-4.532,8.868-0.591,11.923,2.759,11.923s3.35,0,3.35,0l35.571-70.749l16.683,33.505
	l-20.624,0.005l-5.743,12.111h32.399l12.56,25.226l94.161-0.011l8.218-17.331H115.519z"/>
<path fill="#FFFFFF" d="M280.922,262.935c0,3.109-2.502,5.577-5.679,5.577s-5.713-2.468-5.713-5.577s2.536-5.543,5.747-5.543
	C278.42,257.392,280.922,259.825,280.922,262.935z M270.95,262.935c0,2.467,1.859,4.428,4.327,4.428
	c2.399,0.034,4.225-1.961,4.225-4.394c0-2.468-1.825-4.462-4.293-4.462C272.81,258.507,270.95,260.501,270.95,262.935z
	 M274.364,265.808h-1.284v-5.543c0.507-0.067,1.217-0.169,2.129-0.169c1.048,0,1.521,0.169,1.893,0.439
	c0.338,0.236,0.575,0.642,0.575,1.183c0,0.676-0.507,1.116-1.149,1.318v0.067c0.541,0.169,0.812,0.608,0.98,1.353
	c0.169,0.845,0.304,1.148,0.405,1.352h-1.352c-0.169-0.203-0.271-0.676-0.439-1.352c-0.102-0.575-0.439-0.845-1.149-0.845h-0.608
	V265.808z M274.398,262.698h0.608c0.71,0,1.284-0.236,1.284-0.812c0-0.507-0.372-0.845-1.184-0.845
	c-0.337,0-0.574,0.034-0.709,0.067V262.698z"/>
</svg>
